ffmpeg started on 2025-06-20 at 16:52:20
Report written to "D:\Convert\FFMetrics\reports\ssim_report-6.txt"
Log level: 32
Command line:
ffmpeg -hide_banner -nostdin -i "G:\\\xc0\xed\xe8\xec\xe5\\[\xd2\xee\xef]\\\xc2\xee\xeb\xf7\xe8\xf6\xe0 \xe8 \xef\xf0\xff\xed\xee\xf1\xf2\xe8\\\xd2\xee\xf0\xe3\xee\xe2\xe5\xf6 \xe2\xf1\xf2\xf0\xe5\xf7\xe0\xe5\xf2 \xec\xf3\xe4\xf0\xf3\xfe \xe2\xee\xeb\xf7\xe8\xf6\xf3\\DC_Ookami_to_Koushinryou_Merchant_Meets_the_Wise_Wolf_06_Telegram_HEVC.mkv" -i "G:\\\xc0\xed\xe8\xec\xe5\\[\xd2\xee\xef]\\\xc2\xee\xeb\xf7\xe8\xf6\xe0 \xe8 \xef\xf0\xff\xed\xee\xf1\xf2\xe8\\\xd2\xee\xf0\xe3\xee\xe2\xe5\xf6 \xe2\xf1\xf2\xf0\xe5\xf7\xe0\xe5\xf2 \xec\xf3\xe4\xf0\xf3\xfe \xe2\xee\xeb\xf7\xe8\xf6\xf3\\DC_Ookami_to_Koushinryou_Merchant_Meets_the_Wise_Wolf_06_Telegram.mp4" -lavfi "[0:v]settb=AVTB,setpts=PTS-STARTPTS,format=pix_fmts=yuv420p10,fps=24000/1001,scale=1920:1080:flags=bicubic[main];[1:v]settb=AVTB,setpts=PTS-STARTPTS,format=pix_fmts=yuv420p,fps=24000/1001,scale=1920:1080:flags=bicubic[ref];[main][ref]ssim=eof_action=endall:stats_file='D\\:/Convert/FFMetrics/logs/ssim_logfile-6.txt'" -f null -
Input #0, matroska,webm, from 'G:\Аниме\[Топ]\Волчица и пряности\Торговец встречает мудрую волчицу\DC_Ookami_to_Koushinryou_Merchant_Meets_the_Wise_Wolf_06_Telegram_HEVC.mkv':
  Metadata:
    COMPATIBLE_BRANDS: isomiso2avc1mp41
    MAJOR_BRAND     : isom
    MINOR_VERSION   : 512
    ENCODER         : Lavf61.7.100
  Duration: 00:23:57.70, start: -0.021000, bitrate: 828 kb/s
  Stream #0:0: Video: hevc (Main 10), yuv420p10le(tv, bt709, progressive), 1920x1080 [SAR 1:1 DAR 16:9], 23.98 fps, 23.98 tbr, 1k tbn (default)
      Metadata:
        HANDLER_NAME    : VideoHandler
        VENDOR_ID       : [0][0][0][0]
        ENCODER         : Lavc61.19.100 libx265
        BPS             : 631977
        DURATION        : 00:23:56.601708333
        NUMBER_OF_FRAMES: 34444
        NUMBER_OF_BYTES : 113487386
        _STATISTICS_WRITING_APP: mkvpropedit v66.0.0 ('Josie') 64-bit
        _STATISTICS_WRITING_DATE_UTC: 2025-06-20 09:56:11
        _STATISTICS_TAGS: BPS DURATION NUMBER_OF_FRAMES NUMBER_OF_BYTES
  Stream #0:1: Audio: aac (LC), 48000 Hz, stereo, fltp (default)
      Metadata:
        HANDLER_NAME    : SoundHandler
        VENDOR_ID       : [0][0][0][0]
        ENCODER         : Lavc61.19.100 aac
        BPS             : 193203
        DURATION        : 00:23:57.696000000
        NUMBER_OF_FRAMES: 67393
        NUMBER_OF_BYTES : 34721028
        _STATISTICS_WRITING_APP: mkvpropedit v66.0.0 ('Josie') 64-bit
        _STATISTICS_WRITING_DATE_UTC: 2025-06-20 09:56:11
        _STATISTICS_TAGS: BPS DURATION NUMBER_OF_FRAMES NUMBER_OF_BYTES
Input #1, mov,mp4,m4a,3gp,3g2,mj2, from 'G:\Аниме\[Топ]\Волчица и пряности\Торговец встречает мудрую волчицу\DC_Ookami_to_Koushinryou_Merchant_Meets_the_Wise_Wolf_06_Telegram.mp4':
  Metadata:
    major_brand     : isom
    minor_version   : 512
    compatible_brands: isomiso2avc1mp41
    encoder         : Lavf60.16.100
  Duration: 00:23:57.67, start: 0.000000, bitrate: 3479 kb/s
  Stream #1:0[0x1](und): Video: h264 (High) (avc1 / 0x31637661), yuv420p(tv, bt709, progressive), 1920x1080 [SAR 1:1 DAR 16:9], 3334 kb/s, 23.98 fps, 23.98 tbr, 24k tbn (default)
      Metadata:
        handler_name    : VideoHandler
        vendor_id       : [0][0][0][0]
        encoder         : Lavc60.31.102 h264_qsv
  Stream #1:1[0x2](und): Audio: aac (HE-AACv2) (mp4a / 0x6134706D), 48000 Hz, stereo, fltp, 144 kb/s (default)
      Metadata:
        handler_name    : SoundHandler
        vendor_id       : [0][0][0][0]
Stream mapping:
  Stream #0:0 (hevc) -> settb:default
  Stream #1:0 (h264) -> settb:default
  ssim:default -> Stream #0:0 (wrapped_avframe)
  Stream #0:1 -> #0:1 (aac (native) -> pcm_s16le (native))
Output #0, null, to 'pipe:':
  Metadata:
    COMPATIBLE_BRANDS: isomiso2avc1mp41
    MAJOR_BRAND     : isom
    MINOR_VERSION   : 512
    encoder         : Lavf61.7.100
  Stream #0:0: Video: wrapped_avframe, yuv420p10le(tv, bt709, progressive), 1920x1080 [SAR 1:1 DAR 16:9], q=2-31, 200 kb/s, 23.98 fps, 23.98 tbn
      Metadata:
        encoder         : Lavc61.19.100 wrapped_avframe
  Stream #0:1: Audio: pcm_s16le, 48000 Hz, stereo, s16, 1536 kb/s (default)
      Metadata:
        HANDLER_NAME    : SoundHandler
        VENDOR_ID       : [0][0][0][0]
        _STATISTICS_TAGS: BPS DURATION NUMBER_OF_FRAMES NUMBER_OF_BYTES
        BPS             : 193203
        DURATION        : 00:23:57.696000000
        NUMBER_OF_FRAMES: 67393
        NUMBER_OF_BYTES : 34721028
        _STATISTICS_WRITING_APP: mkvpropedit v66.0.0 ('Josie') 64-bit
        _STATISTICS_WRITING_DATE_UTC: 2025-06-20 09:56:11
        encoder         : Lavc61.19.100 pcm_s16le
frame=  195 fps=0.0 q=-0.0 size=N/A time=00:00:08.13 bitrate=N/A speed=15.9x    frame=  442 fps=432 q=-0.0 size=N/A time=00:00:18.43 bitrate=N/A speed=  18x    frame=  698 fps=455 q=-0.0 size=N/A time=00:00:29.11 bitrate=N/A speed=  19x    frame=  970 fps=471 q=-0.0 size=N/A time=00:00:40.45 bitrate=N/A speed=19.6x    frame= 1233 fps=480 q=-0.0 size=N/A time=00:00:51.42 bitrate=N/A speed=  20x    frame= 1486 fps=480 q=-0.0 size=N/A time=00:01:01.97 bitrate=N/A speed=  20x    frame= 1719 fps=477 q=-0.0 size=N/A time=00:01:11.69 bitrate=N/A speed=19.9x    frame= 1991 fps=484 q=-0.0 size=N/A time=00:01:23.04 bitrate=N/A speed=20.2x    frame= 2270 fps=489 q=-0.0 size=N/A time=00:01:34.67 bitrate=N/A speed=20.4x    frame= 2501 fps=486 q=-0.0 size=N/A time=00:01:44.31 bitrate=N/A speed=20.3x    frame= 2775 fps=489 q=-0.0 size=N/A time=00:01:55.74 bitrate=N/A speed=20.4x    frame= 3059 fps=495 q=-0.0 size=N/A time=00:02:07.58 bitrate=N/A speed=20.6x    frame= 3276 fps=489 q=-0.0 size=N/A time=00:02:16.63 bitrate=N/A speed=20.4x    frame= 3486 fps=483 q=-0.0 size=N/A time=00:02:25.39 bitrate=N/A speed=20.2x    frame= 3671 fps=475 q=-0.0 size=N/A time=00:02:33.11 bitrate=N/A speed=19.8x    frame= 3886 fps=471 q=-0.0 size=N/A time=00:02:42.07 bitrate=N/A speed=19.7x    frame= 4094 fps=468 q=-0.0 size=N/A time=00:02:50.75 bitrate=N/A speed=19.5x    frame= 4322 fps=466 q=-0.0 size=N/A time=00:03:00.26 bitrate=N/A speed=19.4x    frame= 4544 fps=464 q=-0.0 size=N/A time=00:03:09.52 bitrate=N/A speed=19.4x    frame= 4771 fps=463 q=-0.0 size=N/A time=00:03:18.99 bitrate=N/A speed=19.3x    frame= 5037 fps=465 q=-0.0 size=N/A time=00:03:30.08 bitrate=N/A speed=19.4x    frame= 5320 fps=469 q=-0.0 size=N/A time=00:03:41.88 bitrate=N/A speed=19.6x    frame= 5577 fps=471 q=-0.0 size=N/A time=00:03:52.60 bitrate=N/A speed=19.6x    frame= 5861 fps=474 q=-0.0 size=N/A time=00:04:04.45 bitrate=N/A speed=19.8x    frame= 6144 fps=477 q=-0.0 size=N/A time=00:04:16.25 bitrate=N/A speed=19.9x    frame= 6396 fps=477 q=-0.0 size=N/A time=00:04:26.76 bitrate=N/A speed=19.9x    frame= 6626 fps=476 q=-0.0 size=N/A time=00:04:36.35 bitrate=N/A speed=19.9x    frame= 6877 fps=476 q=-0.0 size=N/A time=00:04:46.82 bitrate=N/A speed=19.9x    frame= 7131 fps=477 q=-0.0 size=N/A time=00:04:57.42 bitrate=N/A speed=19.9x    frame= 7382 fps=478 q=-0.0 size=N/A time=00:05:07.89 bitrate=N/A speed=19.9x    frame= 7654 fps=479 q=-0.0 size=N/A time=00:05:19.23 bitrate=N/A speed=  20x    frame= 7913 fps=480 q=-0.0 size=N/A time=00:05:30.03 bitrate=N/A speed=  20x    frame= 8166 fps=480 q=-0.0 size=N/A time=00:05:40.59 bitrate=N/A speed=  20x    frame= 8444 fps=482 q=-0.0 size=N/A time=00:05:52.18 bitrate=N/A speed=20.1x    frame= 8729 fps=484 q=-0.0 size=N/A time=00:06:04.07 bitrate=N/A speed=20.2x    frame= 9033 fps=487 q=-0.0 size=N/A time=00:06:16.75 bitrate=N/A speed=20.3x    frame= 9304 fps=488 q=-0.0 size=N/A time=00:06:28.05 bitrate=N/A speed=20.3x    frame= 9574 fps=489 q=-0.0 size=N/A time=00:06:39.31 bitrate=N/A speed=20.4x    frame= 9811 fps=488 q=-0.0 size=N/A time=00:06:49.20 bitrate=N/A speed=20.4x    frame=10069 fps=488 q=-0.0 size=N/A time=00:06:59.96 bitrate=N/A speed=20.4x    frame=10342 fps=490 q=-0.0 size=N/A time=00:07:11.34 bitrate=N/A speed=20.4x    frame=10614 fps=490 q=-0.0 size=N/A time=00:07:22.69 bitrate=N/A speed=20.4x    frame=10871 fps=491 q=-0.0 size=N/A time=00:07:33.41 bitrate=N/A speed=20.5x    frame=11166 fps=492 q=-0.0 size=N/A time=00:07:45.71 bitrate=N/A speed=20.5x    frame=11449 fps=494 q=-0.0 size=N/A time=00:07:57.51 bitrate=N/A speed=20.6x    frame=11717 fps=494 q=-0.0 size=N/A time=00:08:08.69 bitrate=N/A speed=20.6x    frame=11986 fps=495 q=-0.0 size=N/A time=00:08:19.91 bitrate=N/A speed=20.6x    frame=12268 fps=496 q=-0.0 size=N/A time=00:08:31.67 bitrate=N/A speed=20.7x    frame=12532 fps=496 q=-0.0 size=N/A time=00:08:42.68 bitrate=N/A speed=20.7x    frame=12807 fps=497 q=-0.0 size=N/A time=00:08:54.15 bitrate=N/A speed=20.7x    frame=13075 fps=497 q=-0.0 size=N/A time=00:09:05.33 bitrate=N/A speed=20.7x    frame=13366 fps=499 q=-0.0 size=N/A time=00:09:17.47 bitrate=N/A speed=20.8x    frame=13658 fps=500 q=-0.0 size=N/A time=00:09:29.65 bitrate=N/A speed=20.8x    frame=13939 fps=501 q=-0.0 size=N/A time=00:09:41.37 bitrate=N/A speed=20.9x    frame=14204 fps=501 q=-0.0 size=N/A time=00:09:52.42 bitrate=N/A speed=20.9x    frame=14492 fps=502 q=-0.0 size=N/A time=00:10:04.43 bitrate=N/A speed=20.9x    frame=14776 fps=503 q=-0.0 size=N/A time=00:10:16.28 bitrate=N/A speed=  21x    frame=15072 fps=504 q=-0.0 size=N/A time=00:10:28.62 bitrate=N/A speed=  21x    frame=15352 fps=505 q=-0.0 size=N/A time=00:10:40.30 bitrate=N/A speed=21.1x    frame=15607 fps=505 q=-0.0 size=N/A time=00:10:50.94 bitrate=N/A speed=  21x    frame=15863 fps=504 q=-0.0 size=N/A time=00:11:01.61 bitrate=N/A speed=  21x    frame=16137 fps=505 q=-0.0 size=N/A time=00:11:13.04 bitrate=N/A speed=21.1x    frame=16422 fps=506 q=-0.0 size=N/A time=00:11:24.93 bitrate=N/A speed=21.1x    frame=16675 fps=505 q=-0.0 size=N/A time=00:11:35.48 bitrate=N/A speed=21.1x    frame=16889 fps=504 q=-0.0 size=N/A time=00:11:44.41 bitrate=N/A speed=  21x    frame=17160 fps=504 q=-0.0 size=N/A time=00:11:55.71 bitrate=N/A speed=  21x    frame=17435 fps=505 q=-0.0 size=N/A time=00:12:07.18 bitrate=N/A speed=21.1x    frame=17699 fps=505 q=-0.0 size=N/A time=00:12:18.19 bitrate=N/A speed=21.1x    frame=17959 fps=505 q=-0.0 size=N/A time=00:12:29.03 bitrate=N/A speed=21.1x    frame=18199 fps=504 q=-0.0 size=N/A time=00:12:39.04 bitrate=N/A speed=  21x    frame=18438 fps=504 q=-0.0 size=N/A time=00:12:49.01 bitrate=N/A speed=  21x    frame=18702 fps=504 q=-0.0 size=N/A time=00:13:00.02 bitrate=N/A speed=  21x    frame=18980 fps=504 q=-0.0 size=N/A time=00:13:11.62 bitrate=N/A speed=  21x    frame=19243 fps=504 q=-0.0 size=N/A time=00:13:22.59 bitrate=N/A speed=  21x    frame=19520 fps=505 q=-0.0 size=N/A time=00:13:34.14 bitrate=N/A speed=21.1x    frame=19771 fps=505 q=-0.0 size=N/A time=00:13:44.61 bitrate=N/A speed=  21x    frame=20053 fps=505 q=-0.0 size=N/A time=00:13:56.37 bitrate=N/A speed=21.1x    frame=20315 fps=505 q=-0.0 size=N/A time=00:14:07.30 bitrate=N/A speed=21.1x    frame=20581 fps=505 q=-0.0 size=N/A time=00:14:18.39 bitrate=N/A speed=21.1x    frame=20855 fps=506 q=-0.0 size=N/A time=00:14:29.82 bitrate=N/A speed=21.1x    frame=21134 fps=506 q=-0.0 size=N/A time=00:14:41.46 bitrate=N/A speed=21.1x    frame=21404 fps=506 q=-0.0 size=N/A time=00:14:52.72 bitrate=N/A speed=21.1x    frame=21686 fps=507 q=-0.0 size=N/A time=00:15:04.48 bitrate=N/A speed=21.1x    frame=21962 fps=507 q=-0.0 size=N/A time=00:15:15.99 bitrate=N/A speed=21.2x    frame=22229 fps=507 q=-0.0 size=N/A time=00:15:27.13 bitrate=N/A speed=21.2x    frame=22509 fps=508 q=-0.0 size=N/A time=00:15:38.81 bitrate=N/A speed=21.2x    frame=22797 fps=508 q=-0.0 size=N/A time=00:15:50.82 bitrate=N/A speed=21.2x    frame=23056 fps=508 q=-0.0 size=N/A time=00:16:01.62 bitrate=N/A speed=21.2x    frame=23322 fps=508 q=-0.0 size=N/A time=00:16:12.72 bitrate=N/A speed=21.2x    frame=23570 fps=508 q=-0.0 size=N/A time=00:16:23.06 bitrate=N/A speed=21.2x    frame=23836 fps=508 q=-0.0 size=N/A time=00:16:34.15 bitrate=N/A speed=21.2x    frame=24104 fps=508 q=-0.0 size=N/A time=00:16:45.33 bitrate=N/A speed=21.2x    frame=24397 fps=509 q=-0.0 size=N/A time=00:16:57.55 bitrate=N/A speed=21.2x    frame=24680 fps=509 q=-0.0 size=N/A time=00:17:09.36 bitrate=N/A speed=21.2x    frame=24971 fps=510 q=-0.0 size=N/A time=00:17:21.49 bitrate=N/A speed=21.3x    frame=25239 fps=510 q=-0.0 size=N/A time=00:17:32.67 bitrate=N/A speed=21.3x    frame=25466 fps=509 q=-0.0 size=N/A time=00:17:42.14 bitrate=N/A speed=21.2x    frame=25755 fps=510 q=-0.0 size=N/A time=00:17:54.19 bitrate=N/A speed=21.3x    frame=26033 fps=510 q=-0.0 size=N/A time=00:18:05.79 bitrate=N/A speed=21.3x    frame=26294 fps=510 q=-0.0 size=N/A time=00:18:16.67 bitrate=N/A speed=21.3x    frame=26563 fps=510 q=-0.0 size=N/A time=00:18:27.89 bitrate=N/A speed=21.3x    frame=26817 fps=510 q=-0.0 size=N/A time=00:18:38.49 bitrate=N/A speed=21.3x    frame=27104 fps=510 q=-0.0 size=N/A time=00:18:50.46 bitrate=N/A speed=21.3x    frame=27380 fps=511 q=-0.0 size=N/A time=00:19:01.97 bitrate=N/A speed=21.3x    frame=27671 fps=511 q=-0.0 size=N/A time=00:19:14.11 bitrate=N/A speed=21.3x    frame=27899 fps=510 q=-0.0 size=N/A time=00:19:23.62 bitrate=N/A speed=21.3x    frame=28121 fps=510 q=-0.0 size=N/A time=00:19:32.88 bitrate=N/A speed=21.3x    frame=28339 fps=509 q=-0.0 size=N/A time=00:19:41.97 bitrate=N/A speed=21.2x    frame=28553 fps=508 q=-0.0 size=N/A time=00:19:50.89 bitrate=N/A speed=21.2x    frame=28797 fps=508 q=-0.0 size=N/A time=00:20:01.07 bitrate=N/A speed=21.2x    frame=29071 fps=508 q=-0.0 size=N/A time=00:20:12.50 bitrate=N/A speed=21.2x    frame=29375 fps=509 q=-0.0 size=N/A time=00:20:25.18 bitrate=N/A speed=21.2x    frame=29654 fps=509 q=-0.0 size=N/A time=00:20:36.81 bitrate=N/A speed=21.2x    frame=29917 fps=509 q=-0.0 size=N/A time=00:20:47.78 bitrate=N/A speed=21.2x    frame=30183 fps=509 q=-0.0 size=N/A time=00:20:58.88 bitrate=N/A speed=21.2x    frame=30474 fps=509 q=-0.0 size=N/A time=00:21:11.01 bitrate=N/A speed=21.2x    frame=30716 fps=509 q=-0.0 size=N/A time=00:21:21.11 bitrate=N/A speed=21.2x    frame=30989 fps=509 q=-0.0 size=N/A time=00:21:32.49 bitrate=N/A speed=21.2x    frame=31252 fps=509 q=-0.0 size=N/A time=00:21:43.46 bitrate=N/A speed=21.2x    frame=31515 fps=509 q=-0.0 size=N/A time=00:21:54.43 bitrate=N/A speed=21.2x    frame=31769 fps=509 q=-0.0 size=N/A time=00:22:05.03 bitrate=N/A speed=21.2x    frame=32011 fps=509 q=-0.0 size=N/A time=00:22:15.12 bitrate=N/A speed=21.2x    frame=32199 fps=508 q=-0.0 size=N/A time=00:22:22.96 bitrate=N/A speed=21.2x    frame=32315 fps=505 q=-0.0 size=N/A time=00:22:27.80 bitrate=N/A speed=21.1x    frame=32510 fps=504 q=-0.0 size=N/A time=00:22:35.93 bitrate=N/A speed=  21x    frame=32724 fps=504 q=-0.0 size=N/A time=00:22:44.86 bitrate=N/A speed=  21x    frame=32996 fps=504 q=-0.0 size=N/A time=00:22:56.20 bitrate=N/A speed=  21x    frame=33247 fps=504 q=-0.0 size=N/A time=00:23:06.67 bitrate=N/A speed=  21x    frame=33468 fps=503 q=-0.0 size=N/A time=00:23:15.89 bitrate=N/A speed=  21x    frame=33719 fps=503 q=-0.0 size=N/A time=00:23:26.36 bitrate=N/A speed=  21x    frame=33959 fps=503 q=-0.0 size=N/A time=00:23:36.37 bitrate=N/A speed=  21x    frame=34134 fps=501 q=-0.0 size=N/A time=00:23:43.67 bitrate=N/A speed=20.9x    frame=34396 fps=501 q=-0.0 size=N/A time=00:23:54.59 bitrate=N/A speed=20.9x    [Parsed_ssim_10 @ 00000213cd862640] SSIM Y:0.994993 (23.003871) U:0.995420 (23.391399) V:0.996091 (24.079578) All:0.995247 (23.230267)
[out#0/null @ 00000213ccff5480] video:14800KiB audio:269572KiB subtitle:0KiB other streams:0KiB global headers:0KiB muxing overhead: unknown
frame=34444 fps=502 q=-0.0 Lsize=N/A time=00:23:56.60 bitrate=N/A speed=20.9x    
